<?xml version="1.0" encoding="UTF-8" standalone="no"?>
<svg
   xmlns:dc="http://purl.org/dc/elements/1.1/"
   xmlns:cc="http://creativecommons.org/ns#"
   xmlns:rdf="http://www.w3.org/1999/02/22-rdf-syntax-ns#"
   xmlns:svg="http://www.w3.org/2000/svg"
   xmlns="http://www.w3.org/2000/svg"
   id="svg4544"
   version="1.1"
   viewBox="0 0 500 500"
   height="500mm"
   width="500mm">
  <defs
     id="defs4538" />
  <metadata
     id="metadata4541">
    <rdf:RDF>
      <cc:Work
         rdf:about="">
        <dc:format>image/svg+xml</dc:format>
        <dc:type
           rdf:resource="http://purl.org/dc/dcmitype/StillImage" />
        <dc:title></dc:title>
      </cc:Work>
    </rdf:RDF>
  </metadata>
  <g
     transform="translate(-4.9999993,208.00001)"
     id="layer1">
    <path
       id="path827"
       d="M 236.35471,291.05289 C 204.89138,288.75167 173.88913,280.23868 144.74673,265.8981 83.222893,235.62305 37.23375,182.17372 16.451964,116.79185 -4.8758862,49.692141 3.936577,-26.277762 39.964982,-85.908272 65.543304,-128.24281 99.093056,-159.4659 142.74546,-181.56085 c 36.01233,-18.22789 71.17816,-26.46973 112.80852,-26.43907 40.24819,0.0306 74.33163,7.82602 109.71206,25.09594 77.06745,37.61811 130.05903,113.408623 138.84986,198.5879 1.80988,17.536958 0.71134,52.990308 -2.11599,68.288265 -7.94878,43.009465 -25.01335,80.809135 -51.70519,114.532295 -15.10116,19.07917 -41.51905,42.35588 -63.7103,56.13495 -33.63994,20.88784 -72.49767,33.27434 -114.40402,36.46803 -15.7617,1.20122 -18.71764,1.19671 -35.82569,-0.0546 z m 41.1413,-48.21008 c 74.56947,-8.51686 138.58921,-57.42802 165.95435,-126.78924 10.06989,-25.523675 13.844,-45.701031 13.89346,-74.277507 0.0525,-30.266839 -5.13403,-55.570255 -16.69564,-81.454391 -11.0307,-24.69555 -22.98049,-41.767464 -43.48346,-62.121972 -16.33961,-16.22128 -29.64218,-26.09775 -47.80855,-35.49531 -22.60991,-11.69631 -42.19417,-18.01222 -66.9232,-21.58278 -17.3122,-2.49967 -48.23323,-1.69908 -65.21749,1.68854 C 116.23352,-137.0482 46.097735,-46.22328 53.200621,55.207254 c 2.008305,28.679265 8.451872,52.135186 21.313507,77.585726 30.064132,59.49073 87.668312,100.5006 153.813652,109.50384 13.23995,1.80211 35.96129,2.0544 49.16823,0.54599 z"
       style="fill:#00aad4;fill-opacity:1;stroke-width:1.09655213" />
    <path
       style="fill:#00aad4;stroke-width:0.55021304"
       id="path2"
       d="m 291.71023,42.000007 55.0598,-55.059835 c 6.75664,-6.75661 6.75664,-17.711343 0,-24.473464 L 334.5333,-49.770046 c -6.75661,-6.756609 -17.71136,-6.756609 -24.47348,0 L 255.00001,5.2897899 199.94019,-49.770046 c -6.75662,-6.756609 -17.71136,-6.756609 -24.47348,0 l -12.23675,12.236754 c -6.75662,6.75661 -6.75662,17.711343 0,24.473464 L 218.2898,42.000007 163.22996,97.05982 c -6.75662,6.75661 -6.75662,17.71136 0,24.47348 l 12.23675,12.23673 c 6.75661,6.75661 17.71686,6.75661 24.47348,0 l 55.05982,-55.059807 55.05981,55.059807 c 6.75663,6.75661 17.71687,6.75661 24.47348,0 l 12.23673,-12.23673 c 6.75664,-6.75663 6.75664,-17.71136 0,-24.47348 z" />
  </g>
</svg>
